HIERARCHY
ROOT Hips
{
  OFFSET 0 0 0
  CHANNELS 6 Xposition Yposition Zposition Zrotation Xrotation Yrotation
  JOINT Spine
  {
    OFFSET 0.00000000 0.00000000 0.00000000
    CHANNELS 3 Zrotation Xrotation Yrotation
    JOINT Spine1
    {
      OFFSET 0.19000000 0.00000000 0.00000000
      CHANNELS 3 Zrotation Xrotation Yrotation
      JOINT Neck
      {
        OFFSET 0.22500000 0.00600000 0.00000000
        CHANNELS 3 Zrotation Xrotation Yrotation
        JOINT Head
        {
          OFFSET 0.14000000 0.00030878 0.00000000
          CHANNELS 3 Zrotation Xrotation Yrotation
          End Site
          {
            OFFSET 0.17000000 0.00000000 0.00000000
          }
        }
      }
      JOINT LeftShoulder
      {
        OFFSET 0.19800000 0.03700000 0.04300000
        CHANNELS 3 Zrotation Xrotation Yrotation
        JOINT LeftArm
        {
          OFFSET 0.08000000 0.00000000 0.00000000
          CHANNELS 3 Zrotation Xrotation Yrotation
          JOINT LeftForeArm
          {
            OFFSET 0.15200000 0.00000000 0.00000000
            CHANNELS 3 Zrotation Xrotation Yrotation
            JOINT LeftHand
            {
              OFFSET 0.17800000 0.00000000 0.00000000
              CHANNELS 3 Zrotation Xrotation Yrotation
              End Site
              {
                OFFSET 0.07200000 0.00000000 0.00000000
              }
            }
          }
        }
      }
      JOINT RightShoulder
      {
        OFFSET 0.19800000 0.03700000 -0.04300000
        CHANNELS 3 Zrotation Xrotation Yrotation
        JOINT RightArm
        {
          OFFSET 0.08000000 0.00000000 0.00151654
          CHANNELS 3 Zrotation Xrotation Yrotation
          JOINT RightForeArm
          {
            OFFSET 0.15200000 0.00000000 0.00000000
            CHANNELS 3 Zrotation Xrotation Yrotation
            JOINT RightHand
            {
              OFFSET 0.17800000 0.00000000 0.00000000
              CHANNELS 3 Zrotation Xrotation Yrotation
              End Site
              {
                OFFSET 0.07200000 0.00000000 0.00000000
              }
            }
          }
        }
      }
    }
  }
  JOINT LeftUpLeg
  {
    OFFSET 0.05984250 -0.07666000 0.04788790
    CHANNELS 3 Zrotation Xrotation Yrotation
    JOINT LeftLeg
    {
      OFFSET 0.16000000 0.00000000 0.00000000
      CHANNELS 3 Zrotation Xrotation Yrotation
      JOINT LeftFoot
      {
        OFFSET 0.18000000 0.00000000 0.00000000
        CHANNELS 3 Zrotation Xrotation Yrotation
        End Site
        {
          OFFSET 0.00000000 -0.10800000 0.00000000
        }
      }
    }
  }
  JOINT RightUpLeg
  {
    OFFSET 0.05984250 -0.07665980 -0.04788790
    CHANNELS 3 Zrotation Xrotation Yrotation
    JOINT RightLeg
    {
      OFFSET 0.16000000 0.00000000 0.00000000
      CHANNELS 3 Zrotation Xrotation Yrotation
      JOINT RightFoot
      {
        OFFSET 0.18000000 0.00000000 0.00000000
        CHANNELS 3 Zrotation Xrotation Yrotation
        End Site
        {
          OFFSET 0.00000000 -0.10800000 0.00000000
        }
      }
    }
  }
  JOINT Tail
  {
    OFFSET 0.06836960 -0.00722574 0.00000000
    CHANNELS 3 Zrotation Xrotation Yrotation
    JOINT Tail1
    {
      OFFSET 0.12000000 0.00000000 0.00000000
      CHANNELS 3 Zrotation Xrotation Yrotation
      End Site
      {
        OFFSET 0.12000000 0.00000000 0.00000000
      }
    }
  }
}
MOTION
Frames:	8
Frame Time:	0.0166667
0.0000000 0.4752570 0.0000000 -1.84558 9.10033 0.29200 -174.34 1.84562 -7.46778 1.16698 1.57095 8.07902 9.24888 -2.62178 10.8643 39.1065 86.0259 -16.5661 -112.063 -39.104 -137.677 101.464 -16.2794 -131.079 -73.3551 -4.36347 5.40248 -5.05423 0.881939 -6.61396 76.1868 -28.034 42.9529 29.6559 -42.2582 -53.8991 -54.6752 -20.9435 2.56867 -17.6233 -1.73553 10.5972 -123.453 -2.41969 -27.4799 72.851 13.5971 15.7745 43.9056 -3.97544 -7.54326 -134.028 -2.24062 -3.28707 67.2656 -12.3917 -1.55233 63.5318 2.44126 -0.903062 122.607 10.296 -176.037 -176.84 -0.586483 179.251 
-0.0007695 0.4753820 0.0002654 -1.80000 9.11049 0.51127 -174.589 1.80037 -7.06635 1.45908 1.53471 7.71085 9.72115 -2.61077 10.8256 25.6322 87.1237 -3.50823 -111.757 -39.1187 -136.902 103.353 -17.7106 -130.413 -72.5331 -1.68857 3.5176 -5.76263 0.918566 -6.98203 76.0939 -28.0181 42.5602 30.1612 -42.0286 -53.6456 -54.6484 -20.7521 2.72076 -17.4432 -1.72673 10.5709 -123.455 -2.30682 -27.3854 72.7815 13.7514 15.6971 44.038 -4.00578 -7.57826 -133.931 -2.29679 -3.31432 67.2354 -12.3247 -1.4942 63.5284 2.40719 -0.929178 122.664 10.8572 -175.518 -176.923 -2.26265 179.165 
-0.0014017 0.4752690 0.0005161 -1.70428 9.14540 0.68610 -175.107 1.33824 -8.09531 1.9253 0.744034 10.3507 10.6973 -2.19108 7.94905 -41.489 88.309 62.4449 -109.518 -37.7215 -133.695 105.76 -19.4292 -131.146 -71.9019 -0.390426 2.69107 -6.05911 0.954045 -7.29084 74.5072 -28.9559 39.2605 31.1461 -41.3239 -52.755 -53.7632 -20.5844 3.12754 -17.1352 -1.68879 10.352 -123.551 -2.18743 -27.2618 72.9501 13.5229 15.566 43.7318 -3.92752 -7.49952 -133.94 -2.31949 -3.44363 67.3197 -12.141 -1.39216 63.427 2.36857 -0.950718 122.719 11.3355 -175.082 -176.969 -3.57503 179.114 
-0.0019547 0.4751900 0.0008134 -1.66181 9.19297 0.84611 -175.53 0.973516 -9.32759 2.36741 0.062802 13.2011 11.4406 -1.59414 5.25026 -86.4198 87.4984 106.795 -107.493 -36.2913 -130.713 108.179 -20.9917 -131.694 -71.2309 0.778721 2.17045 -6.91048 1.08681 -8.0278 72.9117 -29.9028 36.3433 32.0192 -40.7633 -51.8103 -53.0335 -20.7037 3.3378 -16.8347 -1.49062 9.66434 -123.612 -2.04967 -27.1897 73.024 13.5942 15.4424 43.7853 -3.91339 -7.48342 -133.926 -2.22308 -3.31994 67.3696 -12.0706 -1.52917 63.3575 2.37424 -0.935194 122.712 11.8119 -174.637 -176.936 -4.95493 179.007 
-0.0026434 0.4753580 0.0011868 -1.70834 9.22979 1.13080 -175.844 1.41409 -8.5969 2.83831 0.694445 11.71 11.4549 -1.75544 7.16636 -82.5279 87.5377 102.585 -108.94 -37.4914 -132.561 108.953 -21.554 -131.384 -70.4705 1.48902 1.72784 -7.3418 1.14595 -8.34459 73.9661 -29.5215 38.853 31.2189 -41.181 -52.3465 -53.3672 -20.5012 3.06802 -16.8299 -1.48597 9.72952 -123.486 -2.00087 -27.1307 72.7202 13.976 15.3823 43.8421 -3.9866 -7.56234 -133.797 -2.09663 -3.00254 67.3288 -12.0414 -1.81603 63.479 2.36285 -0.947035 122.799 12.0464 -174.225 -176.893 -5.91321 178.965 
-0.0033316 0.4755870 0.0014494 -1.74475 9.23767 1.36892 -176.114 1.64951 -8.57334 3.27236 0.973566 11.6136 11.5872 -1.4792 7.9416 -78.4736 88.205 97.6595 -109.453 -37.8415 -133.306 109.889 -21.9887 -131.166 -69.8973 2.94186 1.28721 -7.99047 0.983902 -7.8382 74.285 -29.5984 40.1272 30.7158 -41.1605 -52.8783 -53.0983 -20.3709 3.04569 -16.7611 -1.41304 9.47262 -123.452 -1.92977 -27.0785 72.7196 14.0202 15.3032 44.0262 -4.00393 -7.57814 -133.594 -2.09289 -2.88983 67.2545 -12.0581 -1.88368 63.4539 2.35145 -0.949183 122.89 12.2336 -173.902 -176.884 -6.87295 178.835 
-0.0038397 0.4755390 0.0017352 -1.74269 9.25969 1.62637 -176.373 1.78324 -8.67542 3.60377 1.10077 11.8527 11.8964 -1.19002 8.22274 -85.2696 88.314 103.799 -109.678 -37.969 -133.673 110.782 -22.5258 -131.097 -69.334 3.86857 0.962782 -8.83325 1.09953 -8.44459 74.425 -29.5921 40.5897 30.8626 -41.1757 -52.7268 -53.1332 -20.2322 3.04275 -16.6336 -1.36692 9.27559 -123.476 -1.85422 -26.9456 72.7419 14.0262 15.1577 43.9458 -3.991 -7.56492 -133.437 -2.18948 -3.0368 67.2747 -11.9812 -1.73137 63.2233 2.30504 -0.967747 122.928 12.0617 -173.739 -176.91 -7.10317 178.722 
-0.0044021 0.4755300 0.0020377 -1.73210 9.23977 1.88398 -176.512 1.7678 -8.87831 3.76625 1.03522 12.371 12.1872 -0.885513 8.4749 -61.1647 89.2518 79.5127 -109.498 -37.7796 -133.537 112.24 -23.3281 -131.2 -68.6642 4.20025 0.79483 -9.57401 1.47776 -10.0241 74.3963 -29.6181 40.5565 30.9129 -40.9889 -52.6937 -52.8368 -20.1 3.10012 -16.512 -1.2757 8.91867 -123.499 -1.74364 -26.7749 72.7689 14.0358 15.0211 43.9799 -3.98918 -7.56487 -133.405 -2.23286 -3.05899 67.3633 -11.8058 -1.68117 63.2748 2.25822 -1.01234 122.897 11.5852 -173.75 -177.032 -6.91569 178.531 
